Coordinates
version=1
nRows=26
nColumns=22
inDegrees=yes

Units are S.I. units (second, meters, Newtons, ...)
If the header above contains a line with 'inDegrees', this indicates whether rotational values are in degrees (yes) or radians (no).

endheader
time	pelvis_tilt	pelvis_list	pelvis_rotation	pelvis_tx	pelvis_ty	pelvis_tz	hip_flexion_r	hip_adduction_r	hip_rotation_r	knee_angle_r	ankle_angle_r	subtalar_angle_r	hip_flexion_l	hip_adduction_l	hip_rotation_l	knee_angle_l	ankle_angle_l	subtalar_angle_l	lumbar_extension	lumbar_bending	lumbar_rotation
      3.76000000	     -1.18790968	     -1.53646786	    -93.23821695	      0.20078206	      0.90823778	      0.61096561	     -1.99990734	     11.72582391	     12.92626243	    -22.82640026	     12.11884471	     -8.08910299	     21.13096358	     -9.97517158	    -12.01888272	    -15.76836884	      2.93097819	      7.20264122	     -8.16616757	      0.35146789	     12.25966796
      3.77000000	     -1.33815211	     -1.42107654	    -93.82879839	      0.20270015	      0.90709520	      0.61789383	     -2.32548652	     11.64143595	     13.21657126	    -23.02005576	     12.55028040	     -7.82922442	     21.28659520	     -9.61271080	    -12.82097672	    -13.84304261	      2.95864170	      8.25880242	     -8.08203616	      0.64077658	     12.49339229
      3.78000000	     -1.49645188	     -1.32338914	    -94.39416244	      0.20459284	      0.90597878	      0.62492571	     -2.67141796	     11.55801655	     13.47049329	    -23.21642601	     12.95032215	     -7.56772083	     21.45898474	     -9.26393506	    -13.75831392	    -12.19385803	      2.98386989	      9.26813238	     -8.01564153	      0.93619162	     12.71595909
      3.79000000	     -1.66797526	     -1.24078709	    -94.92256311	      0.20646096	      0.90489775	      0.63206539	     -3.04534670	     11.48389173	     13.70984561	    -23.39698742	     13.30916236	     -7.30659935	     21.65812304	     -8.93584895	    -14.75922709	    -10.85000994	      3.01195441	     10.18512507	     -7.96456521	      1.24202740	     12.91024240
      3.80000000	     -1.85251651	     -1.17414668	    -95.43060198	      0.20827007	      0.90386172	      0.63929707	     -3.42965196	     11.42051727	     13.92106818	    -23.59719617	     13.60799910	     -7.06186996	     21.88589842	     -8.64393879	    -15.80741351	     -9.84664448	      3.05059772	     10.91920403	     -7.93307731	      1.55272180	     13.09003883
      3.81000000	     -2.03815823	     -1.09964278	    -95.92839521	      0.20999949	      0.90284839	      0.64664318	     -3.80596490	     11.35928986	     14.13931350	    -23.80619503	     13.87148895	     -6.86605304	     22.15610460	     -8.38609332	    -16.82420948	     -9.18825539	      3.13147208	     11.36894163	     -7.88756047	      1.85199637	     13.27565935
      3.82000000	     -2.24776153	     -1.06828703	    -96.39333125	      0.21165676	      0.90193092	      0.65409990	     -4.22513976	     11.32121344	     14.32821092	    -24.03054180	     14.07720822	     -6.67283471	     22.43119429	     -8.18859833	    -17.77913492	     -8.91352955	      3.19512530	     11.66028585	     -7.89295651	      2.15763202	     13.41711865
      3.83000000	     -2.46094532	     -1.06072387	    -96.85191329	      0.21319467	      0.90109971	      0.66168602	     -4.66402871	     11.28916727	     14.53411765	    -24.27945239	     14.20439576	     -6.46723527	     22.68301474	     -8.03449748	    -18.58789151	     -8.94050455	      3.23470689	     11.78120474	     -7.92154679	      2.44076460	     13.54930529
      3.84000000	     -2.66937453	     -1.07337145	    -97.31489923	      0.21458351	      0.90034702	      0.66940552	     -5.10909463	     11.25851629	     14.77001309	    -24.57661666	     14.27101108	     -6.23918638	     22.90378412	     -7.92054639	    -19.22234225	     -9.24219679	      3.23763603	     11.67920811	     -7.96503502	      2.68610085	     13.67186460
      3.85000000	     -2.86075495	     -1.09584653	    -97.78876726	      0.21581045	      0.89966101	      0.67726852	     -5.54284398	     11.21893936	     15.04098523	    -24.93151596	     14.27459165	     -5.97557693	     23.08730679	     -7.83252005	    -19.65060413	     -9.76901345	      3.20177370	     11.27815968	     -8.00538914	      2.87706704	     13.78880585
      3.86000000	     -3.01755821	     -1.12233982	    -98.23800874	      0.21692495	      0.89902758	      0.68527092	     -5.94293280	     11.15275652	     15.26870133	    -25.35986161	     14.23041463	     -5.66102330	     23.23778452	     -7.73032167	    -19.79341099	    -10.46262364	      3.06319480	     10.49254175	     -8.03226129	      2.99063863	     13.85087481
      3.87000000	     -3.13687686	     -1.14363244	    -98.70855132	      0.21786895	      0.89844557	      0.69341474	     -6.29974644	     11.06487186	     15.55040808	    -25.87303001	     14.10481709	     -5.38515215	     23.34263020	     -7.62595157	    -19.71906327	    -11.26467815	      2.85195394	      9.55693386	     -8.03284496	      3.02932332	     13.88810605
      3.88000000	     -3.18962348	     -1.16258949	    -99.14751508	      0.21875279	      0.89791878	      0.70171570	     -6.59999532	     10.91661004	     15.75938361	    -26.47035563	     13.92545020	     -5.05171673	     23.41250044	     -7.45888026	    -19.37309696	    -12.13016618	      2.49333101	      8.34337242	     -7.99920395	      2.96425844	     13.86599244
      3.89000000	     -3.18242293	     -1.17665380	    -99.58059607	      0.21952886	      0.89745366	      0.71014851	     -6.82825198	     10.72232299	     15.93762000	    -27.17784792	     13.66278566	     -4.67091751	     23.44898887	     -7.24981608	    -18.83740169	    -13.02503331	      2.01725561	      6.96398807	     -7.93234783	      2.80286669	     13.78788771
      3.90000000	     -3.12178089	     -1.18796197	   -100.00082658	      0.22018680	      0.89706082	      0.71870629	     -6.98174639	     10.48771839	     16.05052684	    -27.99182286	     13.31083853	     -4.21397319	     23.47743251	     -7.01677382	    -18.19317691	    -13.96758536	      1.44169937	      5.45617219	     -7.83263772	      2.54863759	     13.67315826
      3.91000000	     -3.01480388	     -1.19303936	   -100.40645122	      0.22074612	      0.89675605	      0.72735742	     -7.03981023	     10.22578177	     16.10695067	    -28.93587107	     12.81177899	     -3.66574526	     23.50734116	     -6.77276342	    -17.51878877	    -14.93490264	      0.78021653	      3.91421490	     -7.70304002	      2.22114170	     13.49169595
      3.92000000	     -2.88485189	     -1.19732058	   -100.80079526	      0.22116063	      0.89656766	      0.73607530	     -7.00463431	      9.95976035	     16.09000727	    -30.00465333	     12.12843888	     -3.00378168	     23.55960262	     -6.56583682	    -16.92785561	    -15.97660789	      0.08928169	      2.44818448	     -7.55573502	      1.84127179	     13.28334462
      3.93000000	     -2.74903687	     -1.20775924	   -101.18290247	      0.22143272	      0.89652822	      0.74484113	     -6.87602639	      9.70503264	     15.99910028	    -31.20381290	     11.21553051	     -2.20424923	     23.63306242	     -6.42399390	    -16.50379534	    -17.10898082	     -0.55638154	      1.15000191	     -7.40388360	      1.43117382	     13.03679347
      3.94000000	     -2.62362594	     -1.23218743	   -101.55149067	      0.22155362	      0.89667178	      0.75362552	     -6.65491020	      9.47454089	     15.82421232	    -32.53563816	     10.05382327	     -1.23785770	     23.71103529	     -6.36544430	    -16.28280328	    -18.32408274	     -1.09015801	      0.07106490	     -7.26256032	      1.00735631	     12.75865229
      3.95000000	     -2.51473775	     -1.28144797	   -101.90847926	      0.22158067	      0.89704364	      0.76241303	     -6.34595833	      9.25985101	     15.56201174	    -33.99505871	      8.63064883	     -0.08568744	     23.75762587	     -6.38282842	    -16.26488126	    -19.58531758	     -1.46837723	     -0.76845736	     -7.14959795	      0.59143285	     12.44107567
      3.96000000	     -2.41982294	     -1.36276335	   -102.25610926	      0.22154474	      0.89768229	      0.77117054	     -5.95128975	      9.04486316	     15.20639877	    -35.57142615	      6.93138823	      1.22601261	     23.73332232	     -6.44649699	    -16.38457445	    -20.82370467	     -1.70931181	     -1.37375979	     -7.07256944	      0.18122437	     12.12074546
      3.97000000	     -2.33319174	     -1.47962180	   -102.59365615	      0.22151451	      0.89859665	      0.77986795	     -5.46855838	      8.80938340	     14.76053458	    -37.25809807	      4.98759941	      2.67745468	     23.61429499	     -6.52279029	    -16.60310268	    -21.98950084	     -1.80445941	     -1.80806802	     -7.03729810	     -0.21617981	     11.78234418
      3.98000000	     -2.24796365	     -1.62849660	   -102.91908589	      0.22154565	      0.89977254	      0.78846618	     -4.89024294	      8.53682555	     14.23459952	    -39.04847485	      2.85008369	      4.19702069	     23.39318753	     -6.57691365	    -16.86349766	    -23.04263498	     -1.79759441	     -2.12863446	     -7.04176399	     -0.59948231	     11.43499094
      3.99000000	     -2.16511934	     -1.79664890	   -103.23848078	      0.22167077	      0.90117256	      0.79692416	     -4.20165621	      8.22485096	     13.65592242	    -40.94296180	      0.59515253	      5.69347776	     23.06574347	     -6.59473278	    -17.16191528	    -23.93237496	     -1.69352894	     -2.38645993	     -7.07346323	     -0.95185481	     11.04716813
      4.00000000	     -2.08344019	     -1.97288066	   -103.54813518	      0.22189228	      0.90273864	      0.80517538	     -3.39637384	      7.87887734	     13.06026966	    -42.92993417	     -1.70151797	      7.05509862	     22.66152290	     -6.56824919	    -17.46354632	    -24.67327850	     -1.55308611	     -2.61747051	     -7.12553781	     -1.27572794	     10.65262425
      4.01000000	     -2.02098459	     -2.13859254	   -103.85542874	      0.22217806	      0.90440609	      0.81315655	     -2.46199624	      7.52673319	     12.47297024	    -45.00446821	     -3.96798100	      8.17165690	     22.18492499	     -6.51466809	    -17.76203926	    -25.22870703	     -1.36754761	     -2.83809208	     -7.18630606	     -1.54675368	     10.24585480
